<?xml version="1.0" ?><svg xmlns="http://www.w3.org/2000/svg" width="23" height="23" viewBox="0 0 64.181396 56.521553">
    <path d="m -739.72078,-88.863564 -2.2016,-1.49609 -5.4486,2.83335 c -9.19,4.77882 -14.7714,4.90987 -13.9672,-6.28768 0.2221,-3.08915 0.4821,-6.06754 0.7076,-6.610716 0.3147,-0.75869 0.029,-1.07928 -1.233,-1.38301 -5.0031,-1.20414 -9.4482,-5.34294 -9.4482,-8.79693 0,-1.58806 0.5695,-2.49816 3.123,-4.99124 1.7179,-1.67719 4.3104,-3.54022 5.7609,-4.14025 l 2.6379,-1.09107 -0.1231,-6.36176 c -0.1129,-5.84301 0,-6.57024 1.3221,-8.91546 3.3909,-5.99018 8.8035,-5.99775 16.2275,-0.0231 2.364,1.90253 4.6887,3.34534 5.1658,3.20602 0.477,-0.1394 2.506,-1.03551 4.5821,-1.80618 11.2513,-4.17638 13.5797,0.25217 13.2535,7.36038 l -0.1867,4.06834 3.1537,1.17644 c 4.4481,1.6595 9.2647,6.50011 9.2647,9.3113 0,1.11304 -0.2444,2.6668 -0.5434,3.4527 -0.9052,2.3808 -4.6339,5.6332 -8.5706,7.4753 l -3.7236,1.74254 0.3871,3.613316 c 0.5012,4.67967 -0.4195,8.05207 -2.8658,10.49843 -1.6476,1.64752 -2.314,2.11393 -4.7186,1.89844 -4.6066,-0.41282 -8.6698,-2.14141 -12.5561,-4.73323 z m 16.3709,-0.62101 c 0.7354,-1.97039 0.8015,-7.88782 0.1653,-8.87812 -0.3187,-0.49482 -1.7587,-0.49482 -5.7487,0 -5.1771,0.64198 -5.3956,0.73084 -7.9344,3.22225 -2.0877,2.04893 -2.4757,2.72418 -1.938,3.37176 0.9399,1.13271 7.0147,3.905 9.5611,4.71437 2.5494,0.81039 5.1041,-0.31236 5.8947,-2.43026 z m -26.5418,-0.75379 c 2.3701,-1.45985 4.403,-2.74564 4.517,-2.85727 0.3095,-0.30319 -4.5406,-5.92742 -5.3939,-6.25487 -0.4052,-0.15563 -1.9039,-0.45763 -3.3303,-0.671666 l -2.5938,-0.38896 -0.6604,2.622246 c -0.363,1.44214 -0.6603,4.01604 -0.6603,5.71977 0,5.35178 1.7601,5.74858 8.1217,1.83075 z m 8.5458,-7.83783 c -0.7398,-0.20799 -2.1094,-0.40418 -3.0433,-0.43596 l -1.6982,-0.0573 1.6614,1.73405 1.6616,1.73421 1.3817,-1.29823 1.382,-1.29808 z m 8.586,-7.432006 c 1.6705,-2.06712 3.4901,-4.59311 4.0437,-5.61339 0.946,-1.74372 0.948,-1.97727 0.035,-3.88932 -0.5335,-1.11862 -1.6309,-3.08098 -2.4386,-4.36037 l -1.4685,-2.32657 -5.341,0.041 c -2.9379,0.0228 -5.7929,0.21962 -6.345,0.43844 -1.2618,0.50007 -5.402,5.9541 -6.992,9.21113 l -1.2017,2.46275 1.5497,3.16047 c 1.7024,3.4712 1.8687,3.55792 8.2739,4.31974 6.4001,0.76114 6.5186,0.71985 9.883,-3.44353 z m -10.2704,-3.05396 c -4.0908,-3.14079 -2.2107,-9.0882 2.8729,-9.0882 2.8703,0 4.694,2.00186 4.694,5.15316 0,3.22733 -1.3175,4.67983 -4.2249,4.65786 -1.3335,-0.0174 -2.8372,-0.33533 -3.342,-0.72282 z m 18.1633,5.95694 c 0.4954,-0.46384 -0.6864,-5.22378 -1.2921,-5.20546 -0.3017,0.0174 -4.1005,5.49819 -4.1005,5.92482 0,0.36057 4.9439,-0.29895 5.3926,-0.71936 z m 7.5673,-1.77765 c 4.0748,-1.5246 6.4951,-3.78708 7.0147,-6.55744 0.3527,-1.88041 0.1907,-2.38819 -1.2562,-3.91032 -1.5859,-1.66964 -4.3786,-3.36895 -7.4639,-4.54213 -1.3486,-0.51267 -1.5233,-0.33027 -3.2057,3.34647 l -1.7794,3.88886 0.9849,3.18015 c 1.3185,4.25679 1.9119,5.78185 2.2501,5.78185 0.1555,0 1.7098,-0.53431 3.4555,-1.18744 z m -36.0878,-0.51302 c 0,-0.96926 -1.0258,-1.20924 -1.3669,-0.31991 -0.2016,0.52482 0,0.86405 0.5176,0.86405 0.4668,0 0.8493,-0.24484 0.8493,-0.54414 z m -4.2287,-3.46399 c 1.1345,-2.68567 1.1533,-3.00855 0.3188,-5.5437 -0.4877,-1.48068 -1.2423,-2.82878 -1.6773,-2.99562 -0.9155,-0.35124 -5.5393,2.34884 -7.3643,4.29155 -1.7082,1.46306 -1.9854,2.25921 -0.5633,3.681 1.6567,1.65686 5.2149,3.33731 7.1843,3.39304 0.5377,0.0174 1.3794,-1.11663 2.1018,-2.82627 z m 5.5307,-10.03867 1.1256,-1.61555 -1.6476,0.39252 c -2.7513,0.65561 -2.953,0.92062 -2.3706,3.11132 0.4866,1.83107 0.5878,1.90729 1.1501,0.86732 0.3392,-0.62706 1.123,-1.86712 1.7425,-2.75561 z m 27.3276,0.15251 c 0.4981,-0.96324 0.7674,-1.97533 0.5982,-2.24889 -0.2901,-0.46956 -4.3652,-1.19316 -4.3652,-0.77505 0,0.44448 2.3567,4.77553 2.5986,4.77553 0.1436,0 0.6702,-0.7882 1.1684,-1.75159 z m -23.5761,-6.16276 c 2.8992,-0.80411 2.9875,-1.23341 4.6902,-2.70961 l 3.4775,-3.54186 -2.4187,-2.1461 c -1.3304,-1.18041 -3.4977,-2.77156 -4.8568,-3.45811 -5.8005,-2.92994 -9.383,2.80941 -9.4141,7.41103 -0.031,4.703 0.545,6.66514 1.7501,6.28258 0.5624,-0.17857 4.6934,-1.26167 6.7718,-1.83793 z m 25.9631,-4.43758 c -0.6236,-5.26217 -3.6111,-6.13281 -9.9834,-2.90873 -3.3548,1.69733 -3.3832,1.97202 -0.5198,4.9976 1.1446,1.20943 2.0874,1.60655 3.9388,1.65851 1.3386,0.0378 3.2145,0.24404 4.1686,0.45857 2.2872,0.51468 2.8398,-0.45547 2.3958,-4.20595 z m -14.383,1.94432 c -0.3973,-0.63595 -0.8794,-1.1563 -1.0719,-1.1563 -0.1926,0 -0.8204,0.52035 -1.3961,1.1563 -1.0283,1.13647 -1.0098,1.15647 1.0719,1.15647 1.9735,0 2.0687,-0.0787 1.3961,-1.15647 z" transform="translate(-70.35158,-167.12309) translate(841.66336,307.72588)" fill="#FFFFFF"/>
</svg>